<?xml version="1.0" encoding="UTF-8"?>
<svg id="Layer_2" data-name="Layer 2" xmlns="http://www.w3.org/2000/svg" viewBox="0 0 390.66 38.22">
  <defs>
    <style>
      .cls-1 {
        fill: #fff;
      }
    </style>
  </defs>
  <g id="Page_22" data-name="Page 22">
    <g>
      <g>
        <g>
          <rect class="cls-1" x="88.4" y=".66" width="5.22" height="37" rx=".98" ry=".98"/>
          <path class="cls-1" d="m189.03,16.4c-6.77-1.65-9.05-3.09-9.05-5.68,0-3.28,3.07-5.76,7.13-5.76,3.44,0,6.88,1.51,9.67,4.26.2.19.47.3.74.28.28-.02.53-.15.7-.36l2.04-2.55c.32-.4.28-.99-.11-1.33-3.84-3.49-8.18-5.25-12.9-5.25-7.16,0-12.56,4.72-12.56,10.98s4.89,8.77,12.24,10.49c6.71,1.55,9.09,3.15,9.09,6.14,0,3.33-3.21,5.66-7.8,5.66-4.23,0-8-1.62-11.2-4.82-.2-.2-.47-.3-.74-.28-.28.02-.54.15-.71.37l-2.04,2.55c-.31.39-.28.95.08,1.31,3.88,3.82,8.9,5.84,14.51,5.84,9.1,0,13.17-5.49,13.17-10.92,0-7.07-6.21-9.48-12.27-10.9Z"/>
          <path class="cls-1" d="m239.86.66h-14.39c-.54,0-.98.44-.98.98v35.05c0,.54.44.98.98.98h3.26c.54,0,.98-.44.98-.98v-11.98h10.14c7.9,0,13.63-5.04,13.63-12s-5.73-12.05-13.63-12.05Zm-10.14,5.06h9.58c5.45,0,8.97,2.74,8.97,6.98s-3.52,6.93-8.97,6.93h-9.58V5.73Z"/>
          <rect class="cls-1" x="275.61" y=".66" width="5.22" height="37" rx=".98" ry=".98"/>
          <path class="cls-1" d="m334.29,12.71c0-6.98-5.73-12.05-13.63-12.05h-14.39c-.54,0-.98.44-.98.98v35.05c0,.54.44.98.98.98h3.26c.54,0,.98-.44.98-.98v-11.98h8.67l8.84,12.54c.18.26.48.41.8.41h3.78c.36,0,.7-.2.87-.53.17-.32.14-.71-.07-1.01l-8.43-11.96c5.64-1.5,9.33-5.95,9.33-11.46Zm-23.77-6.98h9.58c5.45,0,8.97,2.74,8.97,6.98s-3.52,6.93-8.97,6.93h-9.58V5.73Z"/>
          <path class="cls-1" d="m390.58,36.29l-15.46-35.05c-.16-.35-.51-.58-.89-.58h-3.57c-.39,0-.74.23-.89.58l-15.46,35.05c-.13.3-.1.65.08.93.18.28.49.44.82.44h3.57c.39,0,.74-.23.89-.58l1.92-4.39h21.71l1.92,4.39c.16.36.51.58.89.58h3.57c.33,0,.64-.17.82-.44.18-.28.21-.63.08-.93Zm-18.14-28.2l8.86,20.07h-17.71l8.86-20.07Z"/>
        </g>
        <path class="cls-1" d="m149.36,19.99h0V1.59c0-.54-.44-.98-.98-.98h-3.26c-.54,0-.98.44-.98.98v14.45L124.27.97c-.18-.22-.45-.36-.75-.36h-3.26c-.54,0-.98.44-.98.98v35.05c0,.54.44.98.98.98h3.26c.54,0,.98-.44.98-.98V7.69l19.64,14.9v14.05c0,.54.44.98.98.98h3.26c.54,0,.98-.44.98-.98v-10.99h0v-5.65Z"/>
      </g>
      <g>
        <path class="cls-1" d="m36.92,23.54c-1.78-3.31-4.95-6.6-9.56-9.86-3.73-2.69-6.53-5.04-8.39-7.04-1.87-2-3.32-4.18-4.35-6.52l-.25-.02-.29,3.69c-.39,5.61.38,10.25,2.31,13.92.56,1.07,1.23,2.1,1.97,3.1-.77-.1-1.56-.18-2.39-.24-4-.32-7.15-.81-9.47-1.45-2.32-.64-4.42-1.58-6.3-2.82l-.19.1,1.57,2.8c2.43,4.23,5.22,7.25,8.39,9.07,3.17,1.82,6.9,2.86,11.19,3.14,3.53.27,6.28.59,8.26.96,1.41.18,2.62.56,3.62,1.14,1.88,1.09,2.98,2.55,3.33,4.36,3.62-5.63,1.76-11.64,1.74-11.57-.28-.92-.68-1.85-1.18-2.77Z"/>
        <path class="cls-1" d="m58.91,13.5l-.3-.2-3.55-2.39c-.08-1.17-.91-4.61-5.05-5.82-2.34-.6-4.6-.26-7.22.8-3.67,1.49-5.27,3.27-8.11,4.71,1.65,1.29,3.29,2.76,4.88,4.55,1.69,1.91,2.8,3.74,3.46,5.48.35-.58.72-1.29,1.27-1.98,5.09-6.42,5.93-7.92,10.18-6.93l3.98,1.79.32.14s.33.15.36.09c.03-.06-.22-.24-.22-.24Z"/>
      </g>
    </g>
  </g>
</svg>