<?xml version="1.0" encoding="utf-8"?>
<!-- Generator: Adobe Illustrator 26.3.1, SVG Export Plug-In . SVG Version: 6.00 Build 0)  -->
<svg version="1.1" id="Layer_1" xmlns="http://www.w3.org/2000/svg" xmlns:xlink="http://www.w3.org/1999/xlink" x="0px" y="0px"
	 viewBox="0 0 850.4 448.3" style="enable-background:new 0 0 850.4 448.3;" xml:space="preserve">
<style type="text/css">
	.st0{fill:#FFFFFF;}
	.st1{fill:#00B2E3;}
</style>
<g>
	<path class="st0" d="M127.8,399.1c1.7,0,3.3,0,5,0.8s2.5,0.8,3.3,2.5c0.8,0.8,1.7,1.7,1.7,3.3c0,0.8,0.8,2.5,0.8,3.3s0,1.7,0,2.5
		s0,1.7,0,2.5H81.4v-89.4H136c0,0.8,0,1.7,0,2.5s0,1.7,0,2.5c0,3.3-0.8,5-2.5,6.6c-1.7,1.7-4.1,2.5-9.1,2.5H98.8v21.5h28.1v14.1
		H98.8v24h29V399.1z"/>
	<path class="st0" d="M168.3,413.2c-0.8,0-1.7,0-2.5,0s-2.5,0-4.1,0s-2.5,0-4.1-0.8c-1.7,0-2.5-0.8-3.3-1.7
		c-0.8-0.8-1.7-1.7-2.5-3.3c-0.8-1.7-0.8-3.3-0.8-5v-82.7c0.8,0,1.7,0,1.7,0c1.7,0,2.5,0,4.1,0s2.5,0,4.1,0s2.5,0.8,4.1,1.7
		c0.8,0.8,2.5,1.7,2.5,3.3c0.8,1.7,0.8,3.3,0.8,5V413.2z"/>
	<path class="st0" d="M236.2,402.4c0,4.1,0,7.4-0.8,11.6c-0.8,4.1-1.7,8.3-3.3,11.6c-1.7,4.1-4.1,6.6-7.4,9.1
		c-3.3,2.5-8.3,4.1-14.1,4.1c-3.3,0-5-0.8-6.6-1.7c-1.7-0.8-2.5-3.3-2.5-5.8c0-0.8,0-1.7,0-3.3v-3.3c2.5,0,5,0,6.6-0.8
		c1.7-0.8,4.1-1.7,5-2.5c1.7-1.7,2.5-2.5,3.3-5s1.7-5,0.8-7.4v-83.6h2.5h1.7c0.8,0,1.7,0,1.7,0c1.7,0,2.5,0,4.1,0s2.5,0.8,4.1,1.7
		c0.8,0.8,2.5,1.7,3.3,3.3c0.8,1.7,0.8,3.3,0.8,5L236.2,402.4z"/>
	<path class="st0" d="M293.3,350.3c0,0,0.8,0,2.5,0s2.5,0,4.1,0c1.7,0,3.3,0,4.1,0.8c1.7,0,2.5,0.8,4.1,1.7c0.8,0.8,1.7,1.7,2.5,3.3
		c0.8,1.7,0.8,3.3,0.8,5v52.1h-11.6c-2.5,0-3.3-0.8-4.1-1.7c-0.8-1.7-0.8-3.3-0.8-5c-1.7,2.5-4.1,4.1-6.6,5.8
		c-3.3,1.7-7.4,2.5-12.4,2.5c-6.6,0-10.8-0.8-14.1-3.3c-3.3-2.5-5-5.8-5.8-9.9c-0.8-2.5-0.8-4.1-0.8-6.6s0-5,0-6.6V352
		c0.8,0,1.7,0,1.7,0c0.8,0,1.7,0,1.7,0c0.8,0,1.7,0,1.7,0c3.3,0,5.8,0.8,9.1,2.5c2.5,1.7,3.3,4.1,3.3,8.3v25.6c0,1.7,0,3.3,0,5
		s0.8,3.3,0.8,4.1c0.8,0.8,1.7,2.5,2.5,2.5c1.7,0.8,3.3,0.8,5,0.8c3.3,0,5.8-0.8,8.3-1.7c2.5-1.7,3.3-3.3,3.3-5L293.3,350.3z"/>
	<path class="st0" d="M346.2,412.4H328v-62.1c0.8,0,0.8,0,1.7,0s0.8,0,1.7,0c0.8,0,1.7,0,2.5,0c2.5,0,5,0.8,7.4,1.7
		c0.8,0.8,1.7,1.7,2.5,2.5s0.8,1.7,1.7,3.3c1.7-2.5,4.1-4.1,6.6-5.8c3.3-1.7,7.4-2.5,12.4-2.5s8.3,0.8,10.8,2.5s4.1,3.3,5,5.8
		c2.5-2.5,5-5,7.4-5.8c3.3-1.7,7.4-2.5,12.4-2.5c2.5,0,5.8,0,8.3,0.8c1.7,0.8,4.1,1.7,5.8,2.5c1.7,0.8,2.5,2.5,3.3,4.1
		c0.8,1.7,1.7,3.3,1.7,5c0,2.5,0.8,4.1,0.8,6.6s0,5,0,6.6v37.2h-17.4V376c0-1.7,0-3.3,0-5s0-2.5-0.8-4.1c-0.8-0.8-1.7-1.7-2.5-2.5
		c-1.7-0.8-3.3-0.8-5-0.8c-2.5,0-4.1,0.8-6.6,1.7c-1.7,0.8-3.3,1.7-4.1,3.3c0,2.5,0,5,0,7.4v36.4h-18.2V376c0-1.7,0-3.3,0-5
		s0-3.3-0.8-4.1c-0.8-0.8-1.7-2.5-2.5-2.5c-1.7-0.8-3.3-0.8-5-0.8c-2.5,0-5,0.8-7.4,1.7c-0.8,0.8-1.7,1.7-2.5,2.5s-0.8,1.7-0.8,3.3
		L346.2,412.4z"/>
	<path class="st0" d="M455.4,329.6c0,1.7,0,2.5-0.8,3.3s-0.8,2.5-2.5,3.3c-1.7,1.7-4.1,2.5-6.6,2.5s-5-0.8-6.6-2.5
		c-0.8-0.8-1.7-1.7-2.5-3.3c-0.8-0.8-0.8-2.5-0.8-3.3c0-1.7,0-2.5,0.8-3.3s0.8-2.5,2.5-3.3c1.7-1.7,4.1-2.5,6.6-2.5s5,0.8,6.6,2.5
		c0.8,0.8,1.7,1.7,2.5,3.3C455.4,327.1,455.4,328.8,455.4,329.6z M455.4,413.2c-0.8,0-1.7,0-2.5,0s-2.5,0-4.1,0c-1.7,0-3.3,0-5-0.8
		c-1.7,0-2.5-0.8-3.3-1.7c-0.8-0.8-1.7-1.7-2.5-3.3c-0.8-1.7-0.8-3.3-0.8-5v-52.1c0.8,0,1.7,0,1.7,0c1.7,0,2.5,0,4.1,0
		c1.7,0,2.5,0,4.1,0c1.7,0,2.5,0.8,4.1,1.7c0.8,0.8,2.5,1.7,2.5,3.3c0.8,1.7,0.8,3.3,0.8,5L455.4,413.2z"/>
	<path class="st0" d="M490.2,413.2c-0.8,0-1.7,0-2.5,0s-2.5,0-4.1,0c-1.7,0-2.5,0-4.1-0.8c-1.7,0-2.5-0.8-3.3-1.7
		c-0.8-0.8-1.7-1.7-2.5-3.3c-0.8-1.7-0.8-3.3-0.8-5v-82.7c0.8,0,1.7,0,1.7,0c1.7,0,2.5,0,4.1,0c1.7,0,2.5,0,4.1,0
		c1.7,0,2.5,0.8,4.1,1.7c0.8,0.8,2.5,1.7,2.5,3.3c0.8,1.7,0.8,3.3,0.8,5L490.2,413.2L490.2,413.2z"/>
	<path class="st0" d="M524.9,413.2c-0.8,0-1.7,0-2.5,0s-2.5,0-4.1,0c-1.7,0-2.5,0-4.1-0.8c-1.7,0-2.5-0.8-3.3-1.7
		c-0.8-0.8-1.7-1.7-2.5-3.3c-0.8-1.7-0.8-3.3-0.8-5v-82.7c0.8,0,1.7,0,1.7,0c1.7,0,2.5,0,4.1,0s2.5,0,4.1,0c1.7,0,2.5,0.8,4.1,1.7
		c0.8,0.8,2.5,1.7,2.5,3.3c0.8,1.7,0.8,3.3,0.8,5V413.2z"/>
	<path class="st0" d="M593.6,397.5c0,6.6,0.8,11.6,3.3,14.9c-1.7,0.8-3.3,0.8-4.1,1.7c-1.7,0-2.5,0-4.1,0c-3.3,0-5.8-0.8-7.4-1.7
		c-1.7-1.7-2.5-3.3-3.3-5c-2.5,2.5-5,4.1-7.4,5c-4.1,1.7-7.4,1.7-11.6,1.7c-2.5,0-5,0-7.4-0.8c-2.5-0.8-4.1-1.7-6.6-3.3
		c-1.7-1.7-3.3-3.3-5-5.8s-1.7-5.8-1.7-9.1c0-4.1,0.8-8.3,3.3-10.8s5-5,8.3-6.6c3.3-1.7,6.6-2.5,10.8-3.3c3.3-0.8,6.6-0.8,10.8-0.8
		c0.8,0,2.5,0,3.3,0h2.5V371c0-3.3-0.8-5.8-2.5-7.4c-1.7-1.7-5-2.5-9.1-2.5c-3.3,0-6.6,0.8-9.9,1.7c-3.3,0.8-5.8,2.5-8.3,4.1
		c-0.8-1.7-2.5-3.3-3.3-5s-0.8-2.5-0.8-4.1c0-0.8,0-1.7,0.8-1.7c0-0.8,0.8-0.8,1.7-1.7c1.7-1.7,3.3-2.5,5.8-3.3s5.8-1.7,8.3-2.5
		c3.3-0.8,6.6-0.8,9.9-0.8c4.1,0,8.3,0,12.4,1.7c3.3,0.8,5.8,2.5,8.3,4.1c2.5,2.5,3.3,5,4.1,7.4c0.8,3.3,1.7,6.6,1.7,10.8
		L593.6,397.5z M577.1,382.6h-1.7c-0.8,0-0.8,0-1.7,0c-2.5,0-4.1,0.8-6.6,0.8c-1.7,0-4.1,0.8-5.8,1.7c-1.7,0.8-3.3,1.7-4.1,3.3
		c-0.8,1.7-1.7,3.3-1.7,5c0,2.5,0.8,4.1,2.5,6.6c1.7,1.7,4.1,2.5,7.4,2.5c1.7,0,3.3,0,5-0.8c1.7,0,2.5-0.8,4.1-1.7
		c0.8-0.8,1.7-1.7,2.5-2.5s0.8-1.7,0.8-2.5L577.1,382.6z"/>
	<path class="st0" d="M629.2,412.4H611v-62.1c0.8,0,0.8,0,1.7,0s0.8,0,1.7,0c0.8,0,1.7,0,2.5,0c2.5,0,5,0.8,7.4,1.7
		c0.8,0.8,1.7,1.7,2.5,2.5s0.8,1.7,1.7,3.3c1.7-2.5,4.1-4.1,6.6-5.8c3.3-1.7,7.4-2.5,12.4-2.5c6.6,0,10.8,0.8,14.1,3.3
		s5,5.8,5.8,9.9c0.8,2.5,0.8,4.1,0.8,6.6s0,5,0,6.6v37.2H650v-36.4c0-1.7,0-3.3,0-5s-0.8-3.3-0.8-4.1c-0.8-0.8-1.7-2.5-2.5-2.5
		c-1.7-0.8-3.3-0.8-5-0.8c-3.3,0-5.8,0.8-8.3,1.7c-2.5,1.7-3.3,3.3-3.3,5L629.2,412.4z"/>
	<path class="st0" d="M744.2,381.7c0,4.1-0.8,8.3-1.7,12.4s-2.5,7.4-5.8,10.8c-2.5,3.3-5.8,5.8-9.9,7.4c-9.1,3.3-19,3.3-29,0
		c-3.3-1.7-6.6-4.1-9.9-7.4c-2.5-3.3-4.1-6.6-5.8-10.8c-0.8-4.1-1.7-8.3-1.7-12.4s0.8-8.3,1.7-12.4s3.3-7.4,5.8-10.8
		c2.5-3.3,5.8-5.8,9.9-7.4c4.1-1.7,9.1-2.5,14.1-2.5s9.9,0.8,14.1,2.5c3.3,1.7,6.6,4.1,9.1,6.6c2.5,3.3,4.1,6.6,5,9.9
		C743.4,372.6,744.2,376.8,744.2,381.7z M726,381.7c0-2.5,0-5-0.8-6.6c0-2.5-0.8-4.1-1.7-5.8c-0.8-1.7-2.5-3.3-4.1-4.1
		c-1.7-0.8-4.1-1.7-6.6-1.7s-4.1,0.8-6.6,1.7c-1.7,0.8-3.3,2.5-4.1,4.1c-0.8,1.7-1.7,4.1-2.5,5.8c0.8,1.7,0.8,4.1,0.8,6.6
		s0,5,0.8,6.6c0,2.5,0.8,4.1,1.7,6.6c0.8,1.7,2.5,3.3,4.1,4.1c1.7,0.8,4.1,1.7,6.6,1.7s5-0.8,6.6-1.7c1.7-0.8,3.3-2.5,4.1-4.1
		c0.8-1.7,1.7-4.1,1.7-6.6S726,384.2,726,381.7L726,381.7z"/>
</g>
<path class="st0" d="M389.1,11.9c-48.9,0-83.1,36-83.1,87.6c0,26,8,52.1,26.9,69.9c18.8,17.6,42.5,24.3,64.9,24.3
	c27,0,50.3-9,59.5-15.7c4.8-3.5,13.3-11.9,11.3-22.9c-1.7-9.4-9.8-17.6-12.5-20.3l-2-2l-1.4,1.6c-4.3,5.1-17.4,20.7-43.7,20.7
	c-29.9,0-49.3-17.3-49.3-44.1c0-1.2,0.9-2.1,2.1-2.1h109.3c1.2,0,2.1-0.9,2.1-2.1c0.1-1.8,0.1-3.6,0.1-5.4c0-26-8-48.2-23.1-64.3
	C435.1,20.9,413.3,11.9,389.1,11.9 M422.1,77.7H363c-0.6,0-1.2-0.3-1.6-0.8c-0.4-0.5-0.6-1.1-0.4-1.7c3.3-18.2,14.8-28.7,31.6-28.7
	c16.5,0,28.3,10.7,31.6,28.7c0.1,0.6,0,1.2-0.4,1.7C423.3,77.4,422.7,77.7,422.1,77.7"/>
<path class="st0" d="M614.3,40.1c0,9.2-6,18.5-10.6,26.1c-10-8-22.7-13.5-35.2-16.3c-10.3-2.3-34-4.4-35.5,9.3
	c-0.6,5.7,3.3,10.4,11.2,13.5c12.3,5,27.2,10.7,39.6,15.5c11.6,4.5,21.7,12,27.9,22.9c6.1,10.8,6.4,25.1,3.6,36.9
	c-6.1,26-30.7,40.3-55.9,43.6c-18.6,2.4-39.6,0.9-57-6.4c-7.8-3.3-17.4-8.1-17.8-17.7c-0.4-9.1,5-20.8,9.1-27.5
	c9.2,6.9,25.2,12,37.4,14.1c12.4,2.2,29.6,3,35.6-5.8c5-7.2-0.1-14-9.6-18.6c-11.6-5.6-29.8-12.3-37.8-16.1
	c-11.3-5.4-19.7-8.9-26.9-19.5c-7-10.3-8.9-23.6-6.6-35.7c4.8-26,31.9-39.4,56-42.1c14.9-1.7,30.6-0.5,45.1,3.3
	C596.9,22.4,613.5,27.6,614.3,40.1C614.3,43.6,613.9,33.3,614.3,40.1"/>
<path class="st0" d="M753.3,40.1c0,9.2-6,18.5-10.6,26.1c-10-8-22.7-13.5-35.2-16.3c-10.3-2.3-34-4.4-35.5,9.3
	c-0.6,5.7,3.3,10.4,11.2,13.5c12.3,5,27.2,10.7,39.6,15.5c11.6,4.5,21.7,12,27.9,22.9c6.1,10.8,6.4,25.1,3.6,36.9
	c-6.1,26-30.7,40.3-55.9,43.6c-18.6,2.4-39.6,0.9-57-6.4c-7.8-3.3-17.4-8.1-17.8-17.7c-0.4-9.1,5-20.8,9.1-27.5
	c9.2,6.9,25.2,12,37.4,14.1c12.4,2.2,29.6,3,35.6-5.8c5-7.2-0.1-14-9.6-18.6c-11.6-5.6-29.8-12.3-37.8-16.1
	c-11.3-5.4-19.7-8.9-26.9-19.5c-7-10.3-8.9-23.6-6.6-35.7c4.8-26,31.9-39.4,56-42.1c14.9-1.7,30.6-0.5,45.1,3.3
	C735.9,22.4,752.4,27.6,753.3,40.1C753.3,43.6,752.8,33.3,753.3,40.1"/>
<path class="st0" d="M80.4,15v145.9c0,5.7,0.8,10.4,2.5,13.9c1.6,3.5,3.8,6.2,6.6,8.3c2.9,2.1,6.4,3.5,10.4,4.3
	c4.3,0.8,9.3,1.2,14.7,1.2c4.4,0,6.5-0.1,10.4-0.4c2.2-0.1,3.7-0.3,4.7-0.5V40.3c0-5.6-1-10.1-3-13.5c-2-3.4-4.6-5.9-7.8-7.8
	c-3.3-1.9-7.1-3.2-11.3-3.9c-8.8-1.4-15.7-1.2-23.9-0.5C82.3,14.8,81.2,14.9,80.4,15"/>
<path class="st0" d="M305.1,50.2L250,186.8H202L134,14.5h24.2c7.6,0,13.2,1.3,16.9,2.7c4.4,1.6,8.9,4.3,12.7,7.9
	c7.3,6.9,9.9,16.8,12,22.4l25.9,75.5l37.6-108.5h19.9C311.1,14.5,309.3,37.9,305.1,50.2"/>
<path class="st1" d="M221.2,239.6c48.2,1.2,96.3-2.3,143.9-8.4c47.8-6.1,94.9-15.7,143-20.5c66.5-6.6,135.2-7.6,201.8,5.5
	c32.3,6.3,67.5,16.4,97.7,33.7c-42.8-43-145-96.4-381-53.2c-233.3,33-375.6,5.5-408.5-32.1c0,0,4.2,14.9,20,33.8
	c15.6,9,32.4,15.9,49.4,21.3C130.8,233.5,176.4,238.4,221.2,239.6 M819.1,263c-43.8-26.5-99.4-35.8-147.2-39.8
	c-82.2-6.9-164.9,1.9-245.1,16c-3.7,0.6-5.6,0.9-6.2,1c-77.6,13-158.9,22.6-238.1,13.6c-39.8-4.5-85.4-14.6-124.2-35.2
	c48.5,40.4,152.4,82.5,369.6,42.8c233.3-33,375.6-5.5,408.5,32.1C836.4,293.5,832.7,280.4,819.1,263"/>
</svg>
