<?xml version="1.0" encoding="UTF-8"?>
<svg id="Layer_2" data-name="Layer 2" xmlns="http://www.w3.org/2000/svg" viewBox="0 0 1953.93 642.65">
  <defs>
    <style>
      .cls-1 {
        fill: #fff;
        stroke-width: 0px;
      }
    </style>
  </defs>
  <g id="Layer_1-2" data-name="Layer 1">
    <g>
      <path class="cls-1" d="M1313,59.6c15.46-3.73,23.79-13.57,25-29.5-2.57-21.23-14.57-31.23-36-30-4.05,1.52-8.05,3.35-12,5.5-13.42,12.4-15.58,26.56-6.5,42.5,7.75,9.14,17.58,12.97,29.5,11.5Z"/>
      <path class="cls-1" d="M1476,59.6c15.46-3.73,23.79-13.57,25-29.5-2.56-21.22-14.56-31.22-36-30-21.94,7.89-28.77,22.89-20.5,45,7.54,11.18,18.04,16.02,31.5,14.5Z"/>
      <path class="cls-1" d="M893,211.6c-36.71,11.48-60.04-1.35-70-38.5-15.53,5.43-30.87,11.43-46,18,18.39,52.54,55.39,75.71,111,69.5,28.32-4.05,49.15-18.55,62.5-43.5,14.63-42.81,2.46-75.31-36.5-97.5-16.12-7.71-32.79-14.04-50-19-10.33-3.74-19.16-9.57-26.5-17.5-6.93-13.44-4.09-24.27,8.5-32.5,27.02-11.44,47.19-4.27,60.5,21.5,14.15-5.54,27.98-11.54,41.5-18-17.01-39.19-47.01-56.86-90-53-28.28,2.45-49.78,15.79-64.5,40-15.52,44.12-2.02,75.96,40.5,95.5,14.74,5.47,29.41,11.14,44,17,9.8,3.98,18.3,9.81,25.5,17.5,8.88,16.85,5.38,30.35-10.5,40.5Z"/>
      <path class="cls-1" d="M109,113.1c28.65-33.15,57.48-66.15,86.5-99,1.9-1.94,2.74-4.27,2.5-7-19.34-.17-38.67,0-58,.5-29.8,35.63-60.14,70.8-91,105.5-1-35.33-1.33-70.66-1-106H0v249h48c-.17-24.34,0-48.67.5-73,8.62-10.96,17.62-21.63,27-32,24.38,34.92,48.88,69.75,73.5,104.5,19.66.5,39.33.67,59,.5.16-1.37-.01-2.71-.5-4-33.03-46.19-65.86-92.53-98.5-139Z"/>
      <path class="cls-1" d="M1413,7.1h-47v249h47V7.1Z"/>
      <path class="cls-1" d="M372,214.6c-11.95-6.56-24.11-12.72-36.5-18.5-4.13,3.8-7.97,7.97-11.5,12.5-9.93,7.81-21.26,11.98-34,12.5-26.96-1.64-42.96-15.64-48-42,44.39.66,88.55,0,132.5-2,4.12-30.21-3.55-56.87-23-80-21.96-19.79-47.8-27.79-77.5-24-11.97,2.05-23.31,6.22-34,12.5-33.16,23.1-47.66,54.93-43.5,95.5,6.61,43.61,31.45,70.11,74.5,79.5,44.15,7.08,77.82-8.25,101-46ZM280,111.1c23.67-2.26,40.17,7.41,49.5,29,.49,1.63.66,3.3.5,5-28.67.33-57.34,0-86-1,6.36-17.36,18.36-28.36,36-33Z"/>
      <path class="cls-1" d="M489,261.6c32.33-3.15,56.33-18.82,72-47-11.89-6.53-24.06-12.7-36.5-18.5-10.95,15.73-26.11,24.06-45.5,25-26.92-1.59-42.92-15.59-48-42h133c3.86-29.24-2.97-55.58-20.5-79-22.24-22.03-49.08-31.03-80.5-27-35.38,6.8-59.55,27.14-72.5,61-10.17,32.29-6.17,62.62,12,91,22.13,27.64,50.97,39.81,86.5,36.5ZM469,111.1c26-2.11,43,9.05,51,33.5-29,.67-58,.67-87,0,6.15-17.65,18.15-28.82,36-33.5Z"/>
      <path class="cls-1" d="M629.5,256.1c-.61-6.54-1.45-13.04-2.5-19.5.33-.5.67-1,1-1.5,9.64,13.44,22.64,21.94,39,25.5,34.22,5.27,62.05-5.57,83.5-32.5,18.39-29.61,22.72-61.28,13-95-15.91-42.71-46.75-62.71-92.5-60-17.68,3.67-32.02,12.67-43,27-1-7.3-1.33-14.64-1-22h-44v253h47c.17-25,0-50-.5-75ZM638.5,133.1c8.04-8.93,17.88-14.6,29.5-17,29.44-.72,47.28,13.28,53.5,42,3.22,26.07-6.61,45.23-29.5,57.5-27.16,7.84-47.32-.66-60.5-25.5-7.72-20.3-5.38-39.3,7-57Z"/>
      <path class="cls-1" d="M1026.5,156.1c1.42-16.7,9.25-29.2,23.5-37.5,21.98-6.76,36.15.74,42.5,22.5.5,38.33.67,76.66.5,115h47c-.17-33.34,0-66.67.5-100,1.46-17.08,9.62-29.58,24.5-37.5,21.81-6.76,35.64.74,41.5,22.5.5,38.33.67,76.66.5,115h46c.17-42.67,0-85.34-.5-128-2.85-30.17-19.01-48.34-48.5-54.5-30.3-4.58-54.47,5.25-72.5,29.5-1.41-3.16-3.08-6.16-5-9-15.7-17.18-35.2-24.18-58.5-21-11.7,2.34-22.36,7.18-32,14.5-4.32,4.49-8.65,8.66-13,12.5v-22h-44v178h47c-.17-33.34,0-66.67.5-100Z"/>
      <path class="cls-1" d="M1617,73.1c-17.31,3.3-31.31,11.97-42,26-.82.89-1.82,1.22-3,1v-22h-43v178h46c-.17-32.34,0-64.67.5-97,.39-3.72,1.06-7.39,2-11,5.48-19.65,18.31-30.32,38.5-32,15.39.24,25.56,7.57,30.5,22,1.47,39.29,1.97,78.63,1.5,118h47c.17-39.34,0-78.67-.5-118-4.3-47.12-30.14-68.79-77.5-65Z"/>
      <path class="cls-1" d="M1285,256.1h46V78.1h-46v178Z"/>
      <path class="cls-1" d="M1447,256.1h47V78.1h-47v178Z"/>
      <g>
        <path class="cls-1" d="M1855,78.1c.33,6.37,0,12.7-1,19-17.61-19.65-39.61-27.65-66-24-18.87,3.52-35.03,12.18-48.5,26-23.02,30.11-29.02,63.45-18,100,13.32,36.32,39.32,55.32,78,57,22.18.82,40.35-7.18,54.5-24,1.35,10.42.85,20.75-1.5,31-3.51,14.17-12.01,24.01-25.5,29.5-27.7,8.31-48.36-.19-62-25.5-14.25,5.96-28.59,11.63-43,17,1.48,6.63,4.32,12.63,8.5,18,23.17,27.15,52.67,38.65,88.5,34.5,45.78-5.45,72.28-30.95,79.5-76.5.5-60.67.67-121.33.5-182h-44ZM1816,213.6c-37.91-.26-55.41-19.42-52.5-57.5,3.44-22.6,16.27-36.27,38.5-41,33.6-.57,51.27,15.93,53,49.5-.47,26.45-13.47,42.79-39,49Z"/>
        <path class="cls-1" d="M1931,74.1c-7.55,1.55-13.05,5.88-16.5,13-3.53,12.76.63,21.92,12.5,27.5,12.67,3.08,21.5-1.42,26.5-13.5,2.38-17.25-5.12-26.25-22.5-27ZM1946.5,104.1c-8.96,8.24-17.63,7.9-26-1-4.5-12.01-.66-20.01,11.5-24,15.19,2.39,20.02,10.72,14.5,25Z"/>
        <path class="cls-1" d="M1941.5,88.1c-.5-1.17-1.33-2-2.5-2.5-3.99-.5-7.99-.67-12-.5v20h5c-.46-8.72,1.21-8.89,5-.5,2.08.81,4.08.64,6-.5-1.79-2.08-3.45-4.24-5-6.5,3.79-2.05,4.96-5.22,3.5-9.5ZM1932,93.1v-4c3.09-.3,4.75,1.03,5,4h-5Z"/>
      </g>
      <path class="cls-1" d="M1581,367.6c-182.27,107.16-379.27,165.83-591,176-240.49,4.63-464.15-54.04-671-176-2.93-.95-5.93-1.45-9-1.5-11.31,5.92-12.81,13.92-4.5,24,69.43,63.65,146.26,116.82,230.5,159.5,184.43,86.14,377.1,112.47,578,79,185.98-32.57,346.81-113.4,482.5-242.5,1.55-2.27,2.39-4.77,2.5-7.5-1.66-10.65-7.66-14.31-18-11Z"/>
    </g>
  </g>
</svg>