<?xml version="1.0" encoding="UTF-8"?>
<svg id="Layer_2" data-name="Layer 2" xmlns="http://www.w3.org/2000/svg" viewBox="0 0 209.69 73.4">
  <defs>
    <style>
      .cls-1 {
        fill: #fff;
        stroke-width: 0px;
      }
    </style>
  </defs>
  <g id="Layer_2-2" data-name="Layer 2">
    <g id="Layer_1-2" data-name="Layer 1-2">
      <g>
        <g>
          <path class="cls-1" d="M4.67,42.54c.31,0,.63-.04.93-.13s.58-.21.82-.38.43-.38.58-.62.22-.53.22-.85c0-.39-.1-.73-.3-1.04s-.46-.58-.79-.84-.7-.49-1.12-.71-.85-.45-1.29-.67-.87-.46-1.29-.71-.79-.52-1.12-.82-.59-.64-.79-1.01-.3-.8-.3-1.29.09-.94.27-1.35c.18-.41.45-.78.81-1.08s.79-.55,1.3-.72,1.11-.26,1.77-.26c1.2,0,2.15.25,2.85.76s1.2,1.23,1.51,2.18l-1.1.5c-.13-.39-.29-.75-.49-1.07s-.43-.6-.71-.83-.59-.41-.95-.53-.76-.19-1.21-.19c-.4,0-.75.06-1.05.17s-.55.26-.75.44-.35.39-.45.62c-.1.23-.15.46-.15.7,0,.34.1.64.31.92s.48.54.82.78.72.48,1.15.71c.43.23.87.46,1.32.7s.89.48,1.32.74.81.54,1.15.84c.34.3.61.64.82,1s.31.76.31,1.21c0,.5-.1.97-.29,1.42s-.48.83-.86,1.16-.86.59-1.43.78-1.23.29-1.99.29c-.61,0-1.15-.07-1.64-.2s-.91-.33-1.27-.59-.68-.57-.94-.93-.48-.79-.65-1.26l1.15-.47c.27.84.71,1.49,1.33,1.95s1.35.69,2.18.69h0Z"/>
          <path class="cls-1" d="M16.26,36.96v6.1h-2.14v-12.71h2.14v5.8h6.39v-5.8h2.14v12.71h-2.14v-6.1h-6.39Z"/>
          <path class="cls-1" d="M35.71,30.05l5.98,13h-2.17l-1.94-4.24h-5.44l-2.01,4.24h-1.07l6.13-13h.53-.01ZM32.51,37.98h4.68l-2.31-5.02-2.37,5.02Z"/>
          <path class="cls-1" d="M45.99,30.34h4.22c1.31,0,2.43.12,3.37.37s1.72.63,2.35,1.17c.72.61,1.26,1.31,1.63,2.1s.54,1.66.54,2.6c0,.89-.16,1.74-.49,2.52s-.8,1.47-1.42,2.06-1.39,1.05-2.31,1.39-1.96.5-3.15.5h-4.75v-12.71h.01ZM48.13,42.12h2.25c.72,0,1.4-.12,2.03-.35s1.18-.59,1.65-1.05.84-1.04,1.11-1.72.41-1.47.41-2.37c0-.78-.13-1.5-.39-2.15s-.62-1.22-1.07-1.69-1.01-.84-1.64-1.1-1.33-.39-2.08-.39h-2.28v10.83h0Z"/>
          <path class="cls-1" d="M72.21,30.34v.82h-6.7v4.55h4.48v.82h-4.48v5.71h6.7v.82h-8.84v-12.71h8.84Z"/>
          <path class="cls-1" d="M80.7,42.54c.31,0,.63-.04.93-.13s.58-.21.82-.38.43-.38.58-.62.22-.53.22-.85c0-.39-.1-.73-.3-1.04s-.46-.58-.79-.84-.7-.49-1.12-.71-.85-.45-1.29-.67-.87-.46-1.29-.71-.79-.52-1.12-.82-.59-.64-.79-1.01-.3-.8-.3-1.29.09-.94.27-1.35.45-.78.81-1.08.79-.55,1.3-.72,1.11-.26,1.77-.26c1.2,0,2.15.25,2.85.76s1.2,1.23,1.51,2.18l-1.1.5c-.13-.39-.29-.75-.49-1.07s-.43-.6-.71-.83-.59-.41-.95-.53-.76-.19-1.21-.19c-.4,0-.75.06-1.05.17s-.55.26-.75.44-.35.39-.45.62c-.1.23-.15.46-.15.7,0,.34.1.64.31.92s.48.54.82.78.72.48,1.15.71.87.46,1.32.7.89.48,1.32.74.81.54,1.15.84.61.64.82,1,.31.76.31,1.21c0,.5-.1.97-.29,1.42s-.48.83-.86,1.16-.86.59-1.43.78-1.23.29-1.99.29c-.61,0-1.15-.07-1.64-.2s-.91-.33-1.27-.59-.68-.57-.94-.93-.48-.79-.65-1.26l1.15-.47c.27.84.71,1.49,1.33,1.95s1.35.69,2.18.69h.01Z"/>
          <path class="cls-1" d="M98.27,30.34h5.12c.67,0,1.29.08,1.86.23s1.05.36,1.45.64.72.61.94.99c.22.38.34.81.34,1.27,0,.34-.04.65-.11.93s-.2.53-.38.76-.42.45-.71.66-.67.42-1.12.63v.04c.45.07.86.19,1.22.37s.68.39.94.66.46.58.6.93.21.74.21,1.17c0,.48-.11.93-.32,1.35s-.51.78-.9,1.09-.85.55-1.4.73-1.16.27-1.83.27h-5.93v-12.71h.02ZM100.41,36.06h2.72c.43,0,.81-.06,1.14-.18s.61-.29.84-.5.4-.47.52-.76.18-.61.18-.96c0-.37-.07-.71-.21-1.01s-.36-.56-.65-.78-.67-.38-1.13-.5-1.01-.18-1.64-.18h-1.76v4.87h0ZM100.41,42.12h2.31c.62,0,1.16-.06,1.62-.18s.83-.28,1.13-.5.52-.47.66-.77.21-.63.21-.99c0-.4-.06-.77-.19-1.12s-.34-.64-.63-.9-.67-.45-1.14-.6-1.04-.22-1.72-.22h-2.24v5.27h-.01Z"/>
          <path class="cls-1" d="M113.97,30.34l4.4,6.44,4.39-6.44h1.16l-4.93,7.22v5.5h-2.14v-5.29l-5.08-7.42h2.2Z"/>
        </g>
        <path class="cls-1" d="M148.92,73.4c-5.11,0-9.81-1.21-13.23-3.41-3.97-2.55-6.07-6.3-6.07-10.86,0-7.38,7.08-15.35,15.6-23.3-8.95-7.03-17.27-14.27-17.27-21.68,0-5.78,4.24-11.63,12.34-11.63,4.36,0,8.43,1.89,11.45,5.31,2.43,2.75,4.07,6.38,4.87,10.71.84-12.12,6.92-18.54,11.41-18.54,2.12,0,4.39,1.6,4.39,6.11,0,5.48-6.97,12.37-15.2,19.76.52,12.67,3.15,19.45,4.3,19.45.54-.21,1-4.27,1.3-6.96.62-5.51,1.06-8.89,2.39-8.89,1.02,0,1.35,1.36,1.76,3.09.29,1.23.62,2.6,1.22,3.73-.1-.61-.16-1.25-.16-1.89,0-1.88.44-3.75,1.21-5.11.92-1.64,2.25-2.5,3.83-2.5.96,0,1.74.63,2.32,1.61.05-.16.1-.31.17-.44.27-.54.7-.83,1.24-.83.18,0,.5.08.68.64.09.3.14.71.14,1.23,0,1.21-.26,3.01-.78,4.81.47.87,1.05,1.47,1.64,1.47,1.26,0,2.31-2.85,3.16-5.14.87-2.35,1.4-3.67,2.19-3.67.21,0,.4.08.54.23.46.49.39,1.65.32,2.99-.06,1-.13,2.24.15,2.54.03.03.06.04.1.04.46,0,1.03-1.77,1.44-3.06.69-2.16,1.35-4.2,2.58-4.2.47,0,.8.42,1.26,1.01,1.03,1.33,2.76,3.56,7.89,3.56,6.79,0,10.99-5.32,10.99-10.25,0-3.6-2.33-7.45-8.86-7.45v-.6c3.03,0,5.51.84,7.17,2.43,1.48,1.41,2.29,3.41,2.29,5.62,0,5.22-4.43,10.85-11.58,10.85-5.42,0-7.34-2.47-8.37-3.8-.31-.4-.6-.78-.79-.78-.79,0-1.47,2.1-2.01,3.78-.62,1.94-1.11,3.47-2.01,3.47-.21,0-.4-.08-.54-.23-.46-.49-.39-1.65-.32-2.99.06-1,.13-2.24-.15-2.54-.03-.03-.06-.04-.1-.04-.41,0-1.15,1.98-1.63,3.28-.96,2.59-2.05,5.53-3.73,5.53-.73,0-1.37-.52-1.88-1.29-.14.44-.3.87-.48,1.28-.16.53-.38,1-.63,1.42-.09.14-.18.28-.28.41-.94,1.55-2.16,2.64-3.64,2.64s-2.37-.99-2.93-2.4c-1.33-1.35-1.84-3.5-2.26-5.24-.32-1.35-.62-2.63-1.17-2.63-.85,0-1.44,5.23-1.79,8.36-.6,5.32-.93,7.49-1.89,7.49-1.8,0-4.31-7.46-4.87-19.54-1.04.93-2.1,1.87-3.17,2.82-2.46,2.18-4.95,4.38-7.32,6.59.86.68,1.73,1.35,2.6,2.02,10.18,7.9,19.79,15.37,19.79,23.14s-10.1,12.45-19.61,12.45v.02ZM145.7,36.2c-8.45,7.87-15.48,15.75-15.48,22.93,0,4.34,2,7.92,5.79,10.35,3.33,2.14,7.92,3.32,12.91,3.32,9.21,0,19.01-4.15,19.01-11.85s-9.94-15.19-19.56-22.66c-.89-.69-1.79-1.39-2.68-2.08h0ZM169.77,38.78c.45.59,1.04.96,1.78.96.61,0,1.18-.25,1.71-.67-.4.12-.83.19-1.28.19-.87,0-1.6-.17-2.21-.48ZM169.14,37.6c.68.65,1.59,1.05,2.84,1.05,1.08,0,1.95-.39,2.62-1.17.37-.6.71-1.28,1-1.99.19-.68.29-1.45.3-2.26-.44-1.13-.69-2.43-.69-3.5v-.28c-.5-1.21-1.25-2.06-2.16-2.06-1.71,0-2.74,1.19-3.31,2.19-.72,1.28-1.14,3.03-1.14,4.82,0,1.11.17,2.25.53,3.2h.01ZM140.28,3.13c-5.83,0-11.74,3.79-11.74,11.03s8.25,14.3,17.12,21.26c2.4-2.23,4.91-4.45,7.4-6.66,1.19-1.06,2.37-2.1,3.53-3.14-.03-.82-.05-1.65-.07-2.51-.3-6.2-2.1-11.31-5.24-14.87-2.91-3.3-6.82-5.11-11-5.11h0ZM175.82,29.34c.39.99.62,2.17.67,3.36.68-2.8.59-4.79.29-4.96-.3,0-.53.17-.7.5-.14.27-.22.65-.26,1.1ZM157.17,25.01v.08c7.96-7.17,14.63-13.82,14.63-18.98,0-3.45-1.42-5.51-3.79-5.51-4.46,0-10.9,7.41-10.9,20.8,0,.56,0,1.12,0,1.67.03.63.05,1.28.05,1.93h0Z"/>
      </g>
    </g>
  </g>
</svg>